<?xml version="1.0" encoding="UTF-8"?>
<svg version="1.1" xmlns="http://www.w3.org/2000/svg" width="184" height="58">
<path d="M0 0 C4.06124391 1.35374797 4.60315649 3.26258828 6.6875 6.9375 C7.31011719 8.01902344 7.93273437 9.10054687 8.57421875 10.21484375 C10 13 10 13 10 15 C10.62648438 14.71125 11.25296875 14.4225 11.8984375 14.125 C13.12433594 13.568125 13.12433594 13.568125 14.375 13 C15.18710937 12.62875 15.99921875 12.2575 16.8359375 11.875 C19 11 19 11 21 11 C20.57049569 14.00653015 20.07785266 15.883221 18.375 18.4375 C16.56709783 21.80677222 16.94223093 23.37336319 18 27 C18.97691857 28.68029994 19.97388051 30.34928604 21 32 C21 32.99 21 33.98 21 35 C17.27566618 33.7874262 13.62197194 32.49140021 10 31 C9.690625 32.175625 9.690625 32.175625 9.375 33.375 C7.50965127 38.29273755 4.79134805 42.55842103 2 47 C-2.20059624 45.59980125 -3.19051525 42.63174123 -5.1875 38.9375 C-5.55552734 38.27427734 -5.92355469 37.61105469 -6.30273438 36.92773438 C-7.21012062 35.28972543 -8.10615573 33.64543779 -9 32 C-9.94101563 32.31710938 -10.88203125 32.63421875 -11.8515625 32.9609375 C-14.23251991 33.74671253 -16.56087366 34.43712469 -19 35 C-18.57671164 31.50787106 -17.67366978 29.5137715 -15.625 26.75 C-14.43454734 25.01732188 -14.43454734 25.01732188 -14 23 C-14.95068375 20.38343923 -16.20493646 18.31643388 -17.765625 16.015625 C-19 14 -19 14 -19 11 C-15.27566618 12.2125738 -11.62197194 13.50859979 -8 15 C-7.73445313 14.28457031 -7.46890625 13.56914062 -7.1953125 12.83203125 C-5.97085901 9.93095681 -4.52016937 7.36984136 -2.875 4.6875 C-2.33617188 3.80449219 -1.79734375 2.92148438 -1.2421875 2.01171875 C-0.83226563 1.34785156 -0.42234375 0.68398437 0 0 Z M3 6 C4 8 4 8 4 8 Z M0 8 C-1.65 11.3 -3.3 14.6 -5 18 C-2.35205607 19.82535799 -2.35205607 19.82535799 1 21 C4.35205607 19.82535799 4.35205607 19.82535799 7 18 C5.35 14.7 3.7 11.4 2 8 C1.34 8 0.68 8 0 8 Z M-15 15 C-14.34 16.32 -13.68 17.64 -13 19 C-13 17.68 -13 16.36 -13 15 C-13.66 15 -14.32 15 -15 15 Z M15 15 C15.66 15.66 16.32 16.32 17 17 C17 16.34 17 15.68 17 15 C16.34 15 15.68 15 15 15 Z M-13 19 C-12 21 -12 21 -12 21 Z M-7 21 C-7 22.32 -7 23.64 -7 25 C-6.01 24.01 -5.02 23.02 -4 22 C-4.99 21.67 -5.98 21.34 -7 21 Z M7 22 C7.33 22.99 7.66 23.98 8 25 C8.66 24.67 9.32 24.34 10 24 C10 23.34 10 22.68 10 22 C9.01 22 8.02 22 7 22 Z M-5 28 C-3.55049545 31.7910119 -1.84827434 35.3874638 0 39 C2.9555377 36.24829249 5.11563315 33.58029701 7 30 C7 29.34 7 28.68 7 28 C2.57999187 25.47428107 -0.57999187 25.47428107 -5 28 Z M-14 27 C-14.33 28.32 -14.66 29.64 -15 31 C-14.34 30.67 -13.68 30.34 -13 30 C-13.33 29.01 -13.66 28.02 -14 27 Z M15 29 C15 29.66 15 30.32 15 31 C15.66 31 16.32 31 17 31 C17 30.34 17 29.68 17 29 C16.34 29 15.68 29 15 29 Z " fill="#939292" transform="translate(25,6)"/>
<path d="M0 0 C0.33 1.65 0.66 3.3 1 5 C-0.65 5.33 -2.3 5.66 -4 6 C-4.33 5.01 -4.66 4.02 -5 3 C-4.67 2.34 -4.34 1.68 -4 1 C-8.74907807 3.78750235 -9.85809492 4.6452373 -12 10 C-8.37 9.67 -4.74 9.34 -1 9 C-2.66666667 15.66666667 -4.33333333 22.33333333 -6 29 C-5.01 27.35 -4.02 25.7 -3 24 C-2 27 -2 27 -2.5625 29.125 C-4 31 -4 31 -7.0625 31.8125 C-8.031875 31.874375 -9.00125 31.93625 -10 32 C-10.33 31.67 -10.66 31.34 -11 31 C-10.57503505 24.30680198 -9.10830059 18.35142128 -7 12 C-9.97 11.505 -9.97 11.505 -13 11 C-13.226875 12.299375 -13.45375 13.59875 -13.6875 14.9375 C-15.2357365 22.76909046 -17.68084455 30.36980154 -20 38 C-22.475 38.495 -22.475 38.495 -25 39 C-20.80851064 20.65957447 -20.80851064 20.65957447 -18 12 C-18.99 11.34 -19.98 10.68 -21 10 C-19.68 10 -18.36 10 -17 10 C-16.773125 9.0925 -16.54625 8.185 -16.3125 7.25 C-13.08854431 -0.73312838 -7.6466949 -0.53452625 0 0 Z " fill="#6E6B6B" transform="translate(145,10)"/>
<path d="M0 0 C0.66 0 1.32 0 2 0 C2.96426841 2.89280524 3.26496619 5.19478825 3.5 8.21875 C3.62375 9.74048828 3.62375 9.74048828 3.75 11.29296875 C3.91666667 13.43098958 4.08333333 15.56901042 4.25 17.70703125 C4.37375 19.22876953 4.37375 19.22876953 4.5 20.78125 C4.5721875 21.71001953 4.644375 22.63878906 4.71875 23.59570312 C4.93365369 26.14073199 4.93365369 26.14073199 6 29 C2.7 29 -0.6 29 -4 29 C-4 28.34 -4 27.68 -4 27 C-3.34 26.67 -2.68 26.34 -2 26 C-1.53476937 24.10466658 -1.53476937 24.10466658 -1.375 21.9375 C-1.25125 20.638125 -1.1275 19.33875 -1 18 C-4.13130907 17.95316418 -6.99173557 18.08871852 -10 19 C-12.03880834 21.22610045 -12.8137378 23.16328604 -14 26 C-13.34 26.66 -12.68 27.32 -12 28 C-14.97 28.33 -17.94 28.66 -21 29 C-19.95741851 25.87225554 -18.77632797 24.76552732 -16.46191406 22.54345703 C-13.55463524 19.47401536 -11.26706493 15.91225766 -8.875 12.4375 C-7.83117893 10.93588517 -6.78692207 9.43457316 -5.7421875 7.93359375 C-5.05938721 6.9444397 -5.05938721 6.9444397 -4.36279297 5.93530273 C-3.91307129 5.29665283 -3.46334961 4.65800293 -3 4 C-2.48969238 3.25886963 -1.97938477 2.51773926 -1.45361328 1.75415039 C-0.9739209 1.17528076 -0.49422852 0.59641113 0 0 Z M-3 8 C-4.05654417 9.47506444 -5.0707001 10.98064696 -6.0625 12.5 C-6.88427734 13.75296875 -6.88427734 13.75296875 -7.72265625 15.03125 C-8.35494141 16.00578125 -8.35494141 16.00578125 -9 17 C-6.36 17 -3.72 17 -1 17 C-1.33 14.03 -1.66 11.06 -2 8 C-2.33 8 -2.66 8 -3 8 Z " fill="#696767" transform="translate(70,13)"/>
<path d="M0 0 C6 9 6 9 6 13 C2.27566618 11.7874262 -1.37802806 10.49140021 -5 9 C-5.309375 10.175625 -5.309375 10.175625 -5.625 11.375 C-7.49034873 16.29273755 -10.20865195 20.55842103 -13 25 C-17.20059624 23.59980125 -18.19051525 20.63174123 -20.1875 16.9375 C-20.55552734 16.27427734 -20.92355469 15.61105469 -21.30273438 14.92773438 C-22.21012062 13.28972543 -23.10615573 11.64543779 -24 10 C-24.94101562 10.31710938 -25.88203125 10.63421875 -26.8515625 10.9609375 C-29.23251991 11.74671253 -31.56087366 12.43712469 -34 13 C-33.49701212 8.59885603 -31.91227269 6.28804981 -29 3 C-28.05125 3.639375 -27.1025 4.27875 -26.125 4.9375 C-23.25102291 6.83432488 -21.23845732 7.92051423 -18 9 C-16.41034429 11.21701147 -15.27672514 13.57862473 -14 16 C-12.68 13.69 -11.36 11.38 -10 9 C-9.67 9.66 -9.34 10.32 -9 11 C-8.34 9.68 -7.68 8.36 -7 7 C-5.68 7.33 -4.36 7.66 -3 8 C-1.7763932 5.9254644 -1.7763932 5.9254644 -2 3 C-1.34 2.01 -0.68 1.02 0 0 Z M-29 5 C-29.33 6.32 -29.66 7.64 -30 9 C-29.34 8.67 -28.68 8.34 -28 8 C-28.33 7.01 -28.66 6.02 -29 5 Z M0 7 C0 7.66 0 8.32 0 9 C0.66 9 1.32 9 2 9 C2 8.34 2 7.68 2 7 C1.34 7 0.68 7 0 7 Z " fill="#9E9D9D" transform="translate(40,28)"/>
<path d="M0 0 C1.48831242 0.00667405 2.97660807 0.01863442 4.46484375 0.03515625 C5.22345703 0.03966797 5.98207031 0.04417969 6.76367188 0.04882812 C8.64326246 0.06064945 10.52281274 0.07858547 12.40234375 0.09765625 C8.10449297 5.12928643 3.76808833 10.12484068 -0.59765625 15.09765625 C0.72234375 15.75765625 2.04234375 16.41765625 3.40234375 17.09765625 C3.73234375 16.43765625 4.06234375 15.77765625 4.40234375 15.09765625 C3.74234375 14.43765625 3.08234375 13.77765625 2.40234375 13.09765625 C3.06234375 12.76765625 3.72234375 12.43765625 4.40234375 12.09765625 C5.39234375 12.75765625 6.38234375 13.41765625 7.40234375 14.09765625 C7.65234375 17.16015625 7.65234375 17.16015625 7.40234375 20.09765625 C6.40234375 21.09765625 6.40234375 21.09765625 2.8046875 21.1953125 C1.31637508 21.18863845 -0.17192057 21.17667808 -1.66015625 21.16015625 C-2.41876953 21.15564453 -3.17738281 21.15113281 -3.95898438 21.14648438 C-5.83857496 21.13466305 -7.71812524 21.11672703 -9.59765625 21.09765625 C-5.29980547 16.06602607 -0.96340083 11.07047182 3.40234375 6.09765625 C2.08234375 5.43765625 0.76234375 4.77765625 -0.59765625 4.09765625 C-0.92765625 4.75765625 -1.25765625 5.41765625 -1.59765625 6.09765625 C-0.93765625 6.75765625 -0.27765625 7.41765625 0.40234375 8.09765625 C-0.58765625 8.59265625 -0.58765625 8.59265625 -1.59765625 9.09765625 C-2.58765625 8.43765625 -3.57765625 7.77765625 -4.59765625 7.09765625 C-4.84765625 4.03515625 -4.84765625 4.03515625 -4.59765625 1.09765625 C-3.59765625 0.09765625 -3.59765625 0.09765625 0 0 Z " fill="#BAB9B9" transform="translate(152.59765625,19.90234375)"/>
<path d="M0 0 C0.3125 2.75 0.3125 2.75 0 6 C-2.65729517 8.65729517 -5.50716418 10.60286567 -9 12 C-9.99 12 -10.98 12 -12 12 C-11.67 13.98 -11.34 15.96 -11 18 C-7.62537285 17.45276317 -5.91765 16.9451 -3 15 C-3.36197896 17.62434747 -3.82656057 18.82013689 -5.6875 20.75 C-8.71755211 22.387866 -10.60450318 22.50571229 -14 22 C-15.9375 20.5 -15.9375 20.5 -17 18 C-16.90418707 12.05959805 -15.76494904 8.73307879 -12 4 C-11.4225 3.21625 -10.845 2.4325 -10.25 1.625 C-6.83621137 -0.84051401 -4.14406468 -0.27627098 0 0 Z M-5 1 C-5.804375 1.928125 -6.60875 2.85625 -7.4375 3.8125 C-8.11619141 4.59560547 -8.11619141 4.59560547 -8.80859375 5.39453125 C-10.20871231 7.10712971 -10.20871231 7.10712971 -11 10 C-7.34683329 8.75023244 -6.21934164 8.32901247 -4 5 C-4.30840599 2.84725052 -4.30840599 2.84725052 -5 1 Z " fill="#666464" transform="translate(180,20)"/>
<path d="M0 0 C1.65 0 3.3 0 5 0 C4.67 1.65 4.34 3.3 4 5 C5.32 5.66 6.64 6.32 8 7 C6.35 7 4.7 7 3 7 C1.68 12.94 0.36 18.88 -1 25 C1.94729537 22.36893239 1.94729537 22.36893239 3 20 C3.66 20 4.32 20 5 20 C3.25 25.75 3.25 25.75 1 28 C-1.5 28.25 -1.5 28.25 -4 28 C-6 26 -6 26 -6.08203125 24.1875 C-5.34785391 18.22895927 -3.89019026 12.69434675 -2 7 C-2.99 6.67 -3.98 6.34 -5 6 C-3.68 6 -2.36 6 -1 6 C-0.67 4.02 -0.34 2.04 0 0 Z " fill="#787676" transform="translate(103,14)"/>
<path d="M0 0 C1.98 0 3.96 0 6 0 C6 0.66 6 1.32 6 2 C6.99 1.34 7.98 0.68 9 0 C12.1875 -0.125 12.1875 -0.125 15 0 C15 1.65 15 3.3 15 5 C13.33388095 5.042721 11.66617115 5.04063832 10 5 C9.67 4.67 9.34 4.34 9 4 C8.20788071 5.89564426 7.41632424 7.79152371 6.625 9.6875 C5.96371094 11.27111328 5.96371094 11.27111328 5.2890625 12.88671875 C4.17242538 15.58356657 3.07708199 18.28716264 2 21 C0.68 21 -0.64 21 -2 21 C-1.31195504 14.80759538 0.28048715 8.98044406 2 3 C1.67 3.33 1.34 3.66 1 4 C0 5 -1 6 -2 7 C-1.125 2.25 -1.125 2.25 0 0 Z " fill="#6E6C6C" transform="translate(82,20)"/>
<path d="M0 0 C4.06124391 1.35374797 4.60315649 3.26258828 6.6875 6.9375 C7.31011719 8.01902344 7.93273438 9.10054687 8.57421875 10.21484375 C10 13 10 13 10 15 C10.62648438 14.71125 11.25296875 14.4225 11.8984375 14.125 C12.71570313 13.75375 13.53296875 13.3825 14.375 13 C15.18710937 12.62875 15.99921875 12.2575 16.8359375 11.875 C19 11 19 11 21 11 C20.49890042 15.38462134 19.01704885 17.8000997 16 21 C15.34 21 14.68 21 14 21 C14 19.68 14 18.36 14 17 C12.35 17.66 10.7 18.32 9 19 C8.566875 18.030625 8.13375 17.06125 7.6875 16.0625 C6.2985139 12.72268235 6.2985139 12.72268235 3 12 C2.3125 9.9375 2.3125 9.9375 2 8 C1.34 8 0.68 8 0 8 C-0.66 9.65 -1.32 11.3 -2 13 C-2.99 12.34 -3.98 11.68 -5 11 C-4.46884894 6.48521602 -2.63379708 3.65333143 0 0 Z M3 6 C4 8 4 8 4 8 Z M15 15 C15.66 15.66 16.32 16.32 17 17 C17 16.34 17 15.68 17 15 C16.34 15 15.68 15 15 15 Z " fill="#A1A0A0" transform="translate(25,6)"/>
<path d="M0 0 C0.94875 0.04125 1.8975 0.0825 2.875 0.125 C2.33548934 6.81493219 0.98793829 12.75960728 -1.125 19.125 C-0.465 17.475 0.195 15.825 0.875 14.125 C1.535 14.125 2.195 14.125 2.875 14.125 C2.51303085 16.80357172 2.13512724 18.73480914 0.625 21 C-1.125 22.125 -1.125 22.125 -3.8125 21.8125 C-4.575625 21.585625 -5.33875 21.35875 -6.125 21.125 C-5.61414188 14.68818772 -4.39557103 9.16557576 -2.125 3.125 C-3.4231424 4.2740712 -3.4231424 4.2740712 -4.125 7.125 C-4.785 7.125 -5.445 7.125 -6.125 7.125 C-5.03177966 0.20127119 -5.03177966 0.20127119 0 0 Z " fill="#7D7B7B" transform="translate(117.125,19.875)"/>
<path d="M0 0 C0.33 0.66 0.66 1.32 1 2 C6.445 1.505 6.445 1.505 12 1 C10.33333333 7.66666667 8.66666667 14.33333333 7 21 C7.99 19.35 8.98 17.7 10 16 C11 19 11 19 10.4375 21.125 C9 23 9 23 5.9375 23.8125 C4.968125 23.874375 3.99875 23.93625 3 24 C2.67 23.67 2.34 23.34 2 23 C2.42496495 16.30680198 3.89169941 10.35142128 6 4 C3.03 3.505 3.03 3.505 0 3 C0 2.01 0 1.02 0 0 Z " fill="#7A7878" transform="translate(132,18)"/>
<path d="M0 0 C1.5 1.375 1.5 1.375 3 3 C3 3.66 3 4.32 3 5 C6.13349732 6.04449911 6.98968256 5.93423645 10 5 C11.125 9.75 11.125 9.75 10 12 C9.34 12 8.68 12 8 12 C8.66 13.65 9.32 15.3 10 17 C8.34385343 17.38218767 6.67542976 17.71395102 5 18 C4.67 17.67 4.34 17.34 4 17 C3.01 18.32 2.02 19.64 1 21 C1.33 18.69 1.66 16.38 2 14 C1.01 13.34 0.02 12.68 -1 12 C-1.33 11.67 -1.66 11.34 -2 11 C-2.99 10.67 -3.98 10.34 -5 10 C-3.06745228 7.9754262 -1.36841312 6.57894208 1 5 C0.67 3.35 0.34 1.7 0 0 Z M2 10 C2.33 10.99 2.66 11.98 3 13 C3.66 12.67 4.32 12.34 5 12 C5 11.34 5 10.68 5 10 C4.01 10 3.02 10 2 10 Z " fill="#8E8C8C" transform="translate(30,18)"/>
<path d="M0 0 C3.14191424 1.53604696 6.08596738 3.05731159 9 5 C9.99 5.33 10.98 5.66 12 6 C13.4477922 8.89558441 14 10.74188938 14 14 C15.32 14.66 16.64 15.32 18 16 C17.67 16.99 17.34 17.98 17 19 C16.34 19 15.68 19 15 19 C14.67 19.66 14.34 20.32 14 21 C10.04 14.07 10.04 14.07 6 7 C4.02 7.66 2.04 8.32 0 9 C-1.32911682 9.34976758 -2.66082739 9.69096017 -4 10 C-3.43454163 6.04179141 -2.19097652 3.3340947 0 0 Z M1 2 C0.67 3.32 0.34 4.64 0 6 C0.66 5.67 1.32 5.34 2 5 C1.67 4.01 1.34 3.02 1 2 Z " fill="#ACACAC" transform="translate(10,31)"/>
<path d="M0 0 C2.05078125 0.03255208 4.1015625 0.06510417 6.15234375 0.09765625 C6.46484375 2.84765625 6.46484375 2.84765625 6.15234375 6.09765625 C3.49504858 8.75495142 0.64517957 10.70052192 -2.84765625 12.09765625 C-3.83765625 12.09765625 -4.82765625 12.09765625 -5.84765625 12.09765625 C-5.84765625 11.43765625 -5.84765625 10.77765625 -5.84765625 10.09765625 C-4.87828125 9.70578125 -3.90890625 9.31390625 -2.91015625 8.91015625 C0.37410766 7.42170738 0.37410766 7.42170738 1.02734375 4.41015625 C1.06859375 3.64703125 1.10984375 2.88390625 1.15234375 2.09765625 C0.16234375 2.59265625 0.16234375 2.59265625 -0.84765625 3.09765625 C-1.50765625 2.43765625 -2.16765625 1.77765625 -2.84765625 1.09765625 C-1.84765625 0.09765625 -1.84765625 0.09765625 0 0 Z " fill="#7F7D7D" transform="translate(173.84765625,19.90234375)"/>
<path d="M0 0 C6 9 6 9 6 13 C2.27566618 11.7874262 -1.37802806 10.49140021 -5 9 C-5.33 9.66 -5.66 10.32 -6 11 C-6.66 10.34 -7.32 9.68 -8 9 C-7.67 8.34 -7.34 7.68 -7 7 C-5.02 7.495 -5.02 7.495 -3 8 C-1.7763932 5.9254644 -1.7763932 5.9254644 -2 3 C-1.34 2.01 -0.68 1.02 0 0 Z M0 7 C0 7.66 0 8.32 0 9 C0.66 9 1.32 9 2 9 C2 8.34 2 7.68 2 7 C1.34 7 0.68 7 0 7 Z " fill="#A8A7A7" transform="translate(40,28)"/>
<path d="M0 0 C1.32 0.66 2.64 1.32 4 2 C4.04254356 3.99954746 4.04080783 6.00041636 4 8 C3 9 3 9 1.15234375 9.09765625 C-0.8984375 9.06510417 -2.94921875 9.03255208 -5 9 C-5 8.34 -5 7.68 -5 7 C-6.32 6.67 -7.64 6.34 -9 6 C-5.78548731 4.39274365 -2.56387464 4.94251815 1 5 C1 4.34 1 3.68 1 3 C0.34 2.34 -0.32 1.68 -1 1 C-0.67 0.67 -0.34 0.34 0 0 Z " fill="#7C7A7A" transform="translate(156,32)"/>
<path d="M0 0 C2.05078125 0.03255208 4.1015625 0.06510417 6.15234375 0.09765625 C6.15234375 0.75765625 6.15234375 1.41765625 6.15234375 2.09765625 C7.14234375 2.42765625 8.13234375 2.75765625 9.15234375 3.09765625 C6.58021241 4.71714636 5.47565216 5.14174376 2.40234375 4.72265625 C1.65984375 4.51640625 0.91734375 4.31015625 0.15234375 4.09765625 C0.15234375 4.75765625 0.15234375 5.41765625 0.15234375 6.09765625 C0.81234375 6.75765625 1.47234375 7.41765625 2.15234375 8.09765625 C1.16234375 8.59265625 1.16234375 8.59265625 0.15234375 9.09765625 C-0.83765625 8.43765625 -1.82765625 7.77765625 -2.84765625 7.09765625 C-3.09765625 4.03515625 -3.09765625 4.03515625 -2.84765625 1.09765625 C-1.84765625 0.09765625 -1.84765625 0.09765625 0 0 Z " fill="#646161" transform="translate(150.84765625,19.90234375)"/>
<path d="M0 0 C0 1.65 0 3.3 0 5 C-1.66611905 5.042721 -3.33382885 5.04063832 -5 5 C-5.33 4.67 -5.66 4.34 -6 4 C-7.98 8.455 -7.98 8.455 -10 13 C-10.33 13 -10.66 13 -11 13 C-10.125 5.375 -10.125 5.375 -9 2 C-5.5647952 -0.29013653 -4.014669 -0.17842973 0 0 Z " fill="#B3B2B2" transform="translate(97,20)"/>
<path d="M0 0 C0.90105469 0.01804687 1.80210937 0.03609375 2.73046875 0.0546875 C3.41753906 0.07789063 4.10460937 0.10109375 4.8125 0.125 C5.1425 1.775 5.4725 3.425 5.8125 5.125 C4.1625 5.455 2.5125 5.785 0.8125 6.125 C0.4825 5.135 0.1525 4.145 -0.1875 3.125 C0.1425 2.465 0.4725 1.805 0.8125 1.125 C-1.4975 2.445 -3.8075 3.765 -6.1875 5.125 C-6.1875 4.465 -6.1875 3.805 -6.1875 3.125 C-6.8475 2.795 -7.5075 2.465 -8.1875 2.125 C-4.87379 -0.08414 -3.8428979 -0.09981553 0 0 Z " fill="#777575" transform="translate(140.1875,9.875)"/>
<path d="M0 0 C0.66 0.66 1.32 1.32 2 2 C0.68 4.31 -0.64 6.62 -2 9 C-1.34 9.66 -0.68 10.32 0 11 C-4.455 11.495 -4.455 11.495 -9 12 C-7.75748267 8.27244802 -5.79248421 6.72599649 -3 4 C-1.97186389 2.68824014 -0.95915568 1.3630107 0 0 Z " fill="#8B8989" transform="translate(58,30)"/>
<path d="M0 0 C0.33 0 0.66 0 1 0 C1 3.3 1 6.6 1 10 C0.34 8.68 -0.32 7.36 -1 6 C-1.40992187 6.5775 -1.81984375 7.155 -2.2421875 7.75 C-3.05042969 8.86375 -3.05042969 8.86375 -3.875 10 C-4.40867187 10.7425 -4.94234375 11.485 -5.4921875 12.25 C-5.98976562 12.8275 -6.48734375 13.405 -7 14 C-7.66 14 -8.32 14 -9 14 C-7.65378455 10.19136032 -5.94641263 7.34590149 -3.4375 4.1875 C-2.81746094 3.39730469 -2.19742188 2.60710938 -1.55859375 1.79296875 C-0.78708984 0.90544922 -0.78708984 0.90544922 0 0 Z " fill="#B3B2B2" transform="translate(68,16)"/>
<path d="M0 0 C5.75 1.75 5.75 1.75 8 4 C8 4.66 8 5.32 8 6 C7.34 6 6.68 6 6 6 C6 5.34 6 4.68 6 4 C5.34 4 4.68 4 4 4 C4.33 4.99 4.66 5.98 5 7 C4.01 7 3.02 7 2 7 C0.5393715 4.35261084 0 3.10551666 0 0 Z " fill="#A6A5A5" transform="translate(6,17)"/>
<path d="M0 0 C-1.07401108 2.91517292 -1.77810176 4.77810176 -4 7 C-4.66 7 -5.32 7 -6 7 C-6.99 7.495 -6.99 7.495 -8 8 C-5.18918919 0 -5.18918919 0 0 0 Z " fill="#7D7B7B" transform="translate(173,22)"/>
<path d="M0 0 C1.65 0.33 3.3 0.66 5 1 C4.67 2.32 4.34 3.64 4 5 C2.35 5 0.7 5 -1 5 C-0.67 3.35 -0.34 1.7 0 0 Z " fill="#767474" transform="translate(118,11)"/>
<path d="M0 0 C-0.50109958 4.38462134 -1.98295115 6.8000997 -5 10 C-5.66 10 -6.32 10 -7 10 C-7 9.34 -7 8.68 -7 8 C-6.34 7.67 -5.68 7.34 -5 7 C-4.835 6.01 -4.67 5.02 -4.5 4 C-4.335 3.01 -4.17 2.02 -4 1 C-2 0 -2 0 0 0 Z " fill="#9D9C9C" transform="translate(46,17)"/>
<path d="M0 0 C1.2065625 0.0309375 1.2065625 0.0309375 2.4375 0.0625 C3.0975 2.3725 3.7575 4.6825 4.4375 7.0625 C3.7775 6.7325 3.1175 6.4025 2.4375 6.0625 C2.4375 5.4025 2.4375 4.7425 2.4375 4.0625 C1.1175 4.3925 -0.2025 4.7225 -1.5625 5.0625 C-2.2225 3.7425 -2.8825 2.4225 -3.5625 1.0625 C-2.5625 0.0625 -2.5625 0.0625 0 0 Z " fill="#787777" transform="translate(16.5625,30.9375)"/>
<path d="M0 0 C0.625 2.375 0.625 2.375 1 5 C0.34 5.66 -0.32 6.32 -1 7 C-1.66 6.01 -2.32 5.02 -3 4 C-3.99 4.495 -3.99 4.495 -5 5 C-5.99 4.34 -6.98 3.68 -8 3 C-2.25 0 -2.25 0 0 0 Z " fill="#646363" transform="translate(40,23)"/>
<path d="M0 0 C0.66 0.66 1.32 1.32 2 2 C1.34 4.31 0.68 6.62 0 9 C-1.32 9.33 -2.64 9.66 -4 10 C-3.43454163 6.04179141 -2.19097652 3.3340947 0 0 Z " fill="#A8A7A7" transform="translate(10,31)"/>
<path d="M0 0 C0.33 0.99 0.66 1.98 1 3 C-0.125 4.5625 -0.125 4.5625 -2 6 C-5.1875 5.6875 -5.1875 5.6875 -8 5 C-7.67 4.34 -7.34 3.68 -7 3 C-5.33499557 2.65846063 -3.66821323 2.32550502 -2 2 C-1.34 1.34 -0.68 0.68 0 0 Z " fill="#ABA9A9" transform="translate(176,35)"/>
<path d="M0 0 C0.66 0.66 1.32 1.32 2 2 C0.1875 5 0.1875 5 -2 8 C-2.99 8 -3.98 8 -5 8 C-3.62845496 5.04590299 -2.01136276 2.55991624 0 0 Z " fill="#B5B4B4" transform="translate(58,30)"/>
<path d="M0 0 C1.32 0 2.64 0 4 0 C4 1.65 4 3.3 4 5 C2.68 5 1.36 5 0 5 C0 3.35 0 1.7 0 0 Z " fill="#696767" transform="translate(93,20)"/>
<path d="M0 0 C-2.60314689 1.73543126 -3.98694043 2.61121812 -7 3 C-7.66 2.34 -8.32 1.68 -9 1 C-5.64919071 -1.10976881 -3.77897651 -1.0497157 0 0 Z " fill="#BDBCBC" transform="translate(27,31)"/>
<path d="M0 0 C0.66 0.33 1.32 0.66 2 1 C2.33 1.99 2.66 2.98 3 4 C3.99 4.66 4.98 5.32 6 6 C4.125 6.625 4.125 6.625 2 7 C0 5 0 5 -2 2 C-1.34 2 -0.68 2 0 2 C0 1.34 0 0.68 0 0 Z " fill="#C1C0C0" transform="translate(28,27)"/>
<path d="M0 0 C0.99 0.66 1.98 1.32 3 2 C-2.625 5 -2.625 5 -6 5 C-6 4.34 -6 3.68 -6 3 C-4.02 2.01 -2.04 1.02 0 0 Z " fill="#B0AEAE" transform="translate(174,27)"/>
<path d="M0 0 C0.33 0.66 0.66 1.32 1 2 C1.66 2.33 2.32 2.66 3 3 C3 3.66 3 4.32 3 5 C3.66 5.66 4.32 6.32 5 7 C4.01 7.495 4.01 7.495 3 8 C2.01 7.34 1.02 6.68 0 6 C-0.1875 2.875 -0.1875 2.875 0 0 Z " fill="#B6B5B5" transform="translate(148,21)"/>
<path d="M0 0 C2 2 2 2 2 5 C2.66 5.33 3.32 5.66 4 6 C3.67 6.66 3.34 7.32 3 8 C0.24616077 6.62308038 -0.51483101 4.63279958 -2 2 C-1.34 2 -0.68 2 0 2 C0 1.34 0 0.68 0 0 Z " fill="#AAAAAA" transform="translate(33,17)"/>
<path d="M0 0 C1.65 1.65 3.3 3.3 5 5 C4.01 5.66 3.02 6.32 2 7 C1.71125 6.195625 1.4225 5.39125 1.125 4.5625 C0.26737432 1.8673532 0.26737432 1.8673532 -2 1 C-1.34 0.67 -0.68 0.34 0 0 Z " fill="#B3B2B2" transform="translate(27,12)"/>
<path d="M0 0 C0.598125 0.20625 1.19625 0.4125 1.8125 0.625 C0.1625 1.945 -1.4875 3.265 -3.1875 4.625 C-3.1875 3.965 -3.1875 3.305 -3.1875 2.625 C-3.8475 2.295 -4.5075 1.965 -5.1875 1.625 C-2.1875 -0.375 -2.1875 -0.375 0 0 Z " fill="#A5A4A4" transform="translate(137.1875,10.375)"/>
</svg>
